<svg width="83" height="68" viewBox="0 0 83 68" fill="none" xmlns="http://www.w3.org/2000/svg">
<path d="M80.7188 64.6875H76.5V26.7188C76.5 25.5999 76.0555 24.5268 75.2644 23.7356C74.4732 22.9445 73.4001 22.5 72.2812 22.5H48.375V4.21875C48.375 3.09987 47.9305 2.02681 47.1394 1.23564C46.3482 0.444474 45.2751 0 44.1562 0H10.4062C9.28737 0 8.21431 0.444474 7.42314 1.23564C6.63197 2.02681 6.1875 3.09987 6.1875 4.21875V64.6875H1.96875C1.59579 64.6875 1.2381 64.8357 0.974381 65.0994C0.710658 65.3631 0.5625 65.7208 0.5625 66.0938C0.5625 66.4667 0.710658 66.8244 0.974381 67.0881C1.2381 67.3518 1.59579 67.5 1.96875 67.5H80.7188C81.0917 67.5 81.4494 67.3518 81.7131 67.0881C81.9768 66.8244 82.125 66.4667 82.125 66.0938C82.125 65.7208 81.9768 65.3631 81.7131 65.0994C81.4494 64.8357 81.0917 64.6875 80.7188 64.6875ZM72.2812 25.3125C72.6542 25.3125 73.0119 25.4607 73.2756 25.7244C73.5393 25.9881 73.6875 26.3458 73.6875 26.7188V64.6875H48.375V25.3125H72.2812ZM9 4.21875C9 3.84579 9.14816 3.4881 9.41188 3.22438C9.6756 2.96066 10.0333 2.8125 10.4062 2.8125H44.1562C44.5292 2.8125 44.8869 2.96066 45.1506 3.22438C45.4143 3.4881 45.5625 3.84579 45.5625 4.21875V64.6875H9V4.21875ZM17.4375 15.4688C17.4375 15.0958 17.5857 14.7381 17.8494 14.4744C18.1131 14.2107 18.4708 14.0625 18.8438 14.0625H30.0938C30.4667 14.0625 30.8244 14.2107 31.0881 14.4744C31.3518 14.7381 31.5 15.0958 31.5 15.4688C31.5 15.8417 31.3518 16.1994 31.0881 16.4631C30.8244 16.7268 30.4667 16.875 30.0938 16.875H18.8438C18.4708 16.875 18.1131 16.7268 17.8494 16.4631C17.5857 16.1994 17.4375 15.8417 17.4375 15.4688ZM37.125 37.9688C37.125 38.3417 36.9768 38.6994 36.7131 38.9631C36.4494 39.2268 36.0917 39.375 35.7188 39.375H24.4688C24.0958 39.375 23.7381 39.2268 23.4744 38.9631C23.2107 38.6994 23.0625 38.3417 23.0625 37.9688C23.0625 37.5958 23.2107 37.2381 23.4744 36.9744C23.7381 36.7107 24.0958 36.5625 24.4688 36.5625H35.7188C36.0917 36.5625 36.4494 36.7107 36.7131 36.9744C36.9768 37.2381 37.125 37.5958 37.125 37.9688ZM31.5 52.0312C31.5 52.4042 31.3518 52.7619 31.0881 53.0256C30.8244 53.2893 30.4667 53.4375 30.0938 53.4375H18.8438C18.4708 53.4375 18.1131 53.2893 17.8494 53.0256C17.5857 52.7619 17.4375 52.4042 17.4375 52.0312C17.4375 51.6583 17.5857 51.3006 17.8494 51.0369C18.1131 50.7732 18.4708 50.625 18.8438 50.625H30.0938C30.4667 50.625 30.8244 50.7732 31.0881 51.0369C31.3518 51.3006 31.5 51.6583 31.5 52.0312ZM65.25 52.0312C65.25 52.4042 65.1018 52.7619 64.8381 53.0256C64.5744 53.2893 64.2167 53.4375 63.8438 53.4375H58.2188C57.8458 53.4375 57.4881 53.2893 57.2244 53.0256C56.9607 52.7619 56.8125 52.4042 56.8125 52.0312C56.8125 51.6583 56.9607 51.3006 57.2244 51.0369C57.4881 50.7732 57.8458 50.625 58.2188 50.625H63.8438C64.2167 50.625 64.5744 50.7732 64.8381 51.0369C65.1018 51.3006 65.25 51.6583 65.25 52.0312ZM56.8125 37.9688C56.8125 37.5958 56.9607 37.2381 57.2244 36.9744C57.4881 36.7107 57.8458 36.5625 58.2188 36.5625H63.8438C64.2167 36.5625 64.5744 36.7107 64.8381 36.9744C65.1018 37.2381 65.25 37.5958 65.25 37.9688C65.25 38.3417 65.1018 38.6994 64.8381 38.9631C64.5744 39.2268 64.2167 39.375 63.8438 39.375H58.2188C57.8458 39.375 57.4881 39.2268 57.2244 38.9631C56.9607 38.6994 56.8125 38.3417 56.8125 37.9688Z" fill="#D6C2A9"/>
</svg>
