<svg width="66" height="64" viewBox="0 0 66 64" fill="none" xmlns="http://www.w3.org/2000/svg">
<path d="M65.4781 4.21875V57.6562C65.4781 58.7751 65.0386 59.8482 64.2562 60.6394C63.4738 61.4305 62.4127 61.875 61.3062 61.875H37.5266C37.1577 61.875 36.804 61.7268 36.5432 61.4631C36.2824 61.1994 36.1359 60.8417 36.1359 60.4687C36.1359 60.0958 36.2824 59.7381 36.5432 59.4744C36.804 59.2107 37.1577 59.0625 37.5266 59.0625H61.3062C61.6751 59.0625 62.0288 58.9143 62.2896 58.6506C62.5504 58.3869 62.6969 58.0292 62.6969 57.6562V4.21875C62.6969 3.84579 62.5504 3.4881 62.2896 3.22438C62.0288 2.96066 61.6751 2.8125 61.3062 2.8125H8.4625C8.09368 2.8125 7.73997 2.96066 7.47918 3.22438C7.21839 3.4881 7.07188 3.84579 7.07188 4.21875V36.3164C7.07188 36.6894 6.92536 37.0471 6.66457 37.3108C6.40378 37.5745 6.05007 37.7227 5.68125 37.7227C5.31244 37.7227 4.95872 37.5745 4.69793 37.3108C4.43714 37.0471 4.29063 36.6894 4.29063 36.3164V4.21875C4.29063 3.09987 4.73016 2.02681 5.51254 1.23564C6.29492 0.444474 7.35605 0 8.4625 0H61.3062C62.4127 0 63.4738 0.444474 64.2562 1.23564C65.0386 2.02681 65.4781 3.09987 65.4781 4.21875ZM35.8578 38.3906C35.7314 38.2588 35.5801 38.154 35.4129 38.0824C35.2457 38.0108 35.066 37.9739 34.8844 37.9739C34.7028 37.9739 34.5231 38.0108 34.3558 38.0824C34.1886 38.154 34.0373 38.2588 33.9109 38.3906L12.6344 59.8711L2.48281 49.6406C2.21502 49.4375 1.88376 49.3389 1.54986 49.3629C1.21596 49.3869 0.901819 49.5319 0.665119 49.7713C0.428419 50.0106 0.285043 50.3283 0.261313 50.6659C0.237583 51.0036 0.335093 51.3386 0.53594 51.6094L11.6609 62.8594C11.7873 62.9912 11.9386 63.096 12.1058 63.1676C12.2731 63.2392 12.4528 63.2761 12.6344 63.2761C12.816 63.2761 12.9957 63.2392 13.1629 63.1676C13.3301 63.096 13.4814 62.9912 13.6078 62.8594L35.8578 40.3594C35.9882 40.2316 36.0918 40.0786 36.1626 39.9095C36.2334 39.7404 36.2699 39.5586 36.2699 39.375C36.2699 39.1914 36.2334 39.0096 36.1626 38.8405C36.0918 38.6714 35.9882 38.5184 35.8578 38.3906Z" fill="#D6C2A9"/>
</svg>
