<svg width="68" height="68" viewBox="0 0 68 68" fill="none" xmlns="http://www.w3.org/2000/svg">
<path d="M67.0781 11.6667L55.8281 0.416681C55.7003 0.284851 55.5473 0.180037 55.3782 0.10846C55.2091 0.0368826 55.0274 0 54.8437 0C54.6601 0 54.4784 0.0368826 54.3093 0.10846C54.1402 0.180037 53.9872 0.284851 53.8594 0.416681L20.1094 34.1667C19.9714 34.2899 19.8621 34.442 19.7892 34.612C19.7163 34.7821 19.6816 34.9661 19.6875 35.1511V46.4011C19.6875 46.774 19.8357 47.1317 20.0994 47.3954C20.3631 47.6591 20.7208 47.8073 21.0937 47.8073H32.3437C32.5287 47.8132 32.7127 47.7785 32.8828 47.7056C33.0528 47.6327 33.2049 47.5234 33.3281 47.3854L67.0781 13.6354C67.21 13.5076 67.3148 13.3546 67.3863 13.1855C67.4579 13.0164 67.4948 12.8347 67.4948 12.6511C67.4948 12.4674 67.4579 12.2857 67.3863 12.1166C67.3148 11.9475 67.21 11.7945 67.0781 11.6667ZM31.7461 44.9948H22.5V35.7487L46.4062 11.8425L55.6523 21.0886L31.7461 44.9948ZM57.6562 19.0847L48.4102 9.83856L54.8437 3.40496L64.0898 12.6511L57.6562 19.0847ZM64.6875 32.3386V63.2761C64.6875 64.3949 64.243 65.468 63.4519 66.2592C62.6607 67.0503 61.5876 67.4948 60.4687 67.4948H4.21875C3.09987 67.4948 2.02681 67.0503 1.23564 66.2592C0.444474 65.468 0 64.3949 0 63.2761V7.02606C0 5.90717 0.444474 4.83412 1.23564 4.04295C2.02681 3.25178 3.09987 2.80731 4.21875 2.80731H35.1562C35.5292 2.80731 35.8869 2.95546 36.1506 3.21919C36.4143 3.48291 36.5625 3.84059 36.5625 4.21356C36.5625 4.58652 36.4143 4.9442 36.1506 5.20792C35.8869 5.47165 35.5292 5.61981 35.1562 5.61981H4.21875C3.84579 5.61981 3.4881 5.76796 3.22438 6.03169C2.96066 6.29541 2.8125 6.65309 2.8125 7.02606V63.2761C2.8125 63.649 2.96066 64.0067 3.22438 64.2704C3.4881 64.5341 3.84579 64.6823 4.21875 64.6823H60.4687C60.8417 64.6823 61.1994 64.5341 61.4631 64.2704C61.7268 64.0067 61.875 63.649 61.875 63.2761V32.3386C61.875 31.9656 62.0232 31.6079 62.2869 31.3442C62.5506 31.0805 62.9083 30.9323 63.2812 30.9323C63.6542 30.9323 64.0119 31.0805 64.2756 31.3442C64.5393 31.6079 64.6875 31.9656 64.6875 32.3386Z" fill="#D6C2A9"/>
</svg>
