<svg width="25" height="24" viewBox="0 0 25 24" fill="none" xmlns="http://www.w3.org/2000/svg">
<path d="M22.6016 15.6633C21.3221 15.5109 20.0517 15.2948 18.7953 15.0158C18.4886 14.9168 18.1606 14.896 17.8431 14.9553C17.5256 15.0145 17.2292 15.1519 16.9828 15.3542C16.6626 15.6692 15.7382 16.55 14.7776 17.46C11.3358 15.8264 8.55234 13.1368 6.86304 9.81249C7.7995 8.88499 8.67554 7.99833 9.032 7.68916C9.24145 7.45124 9.38376 7.16515 9.44515 6.85857C9.50653 6.552 9.48493 6.23531 9.38241 5.93916C9.09315 4.72423 8.86931 3.49563 8.71179 2.25833C8.69491 2.10076 8.64498 1.94817 8.56504 1.80985C8.4851 1.67152 8.37682 1.55036 8.2468 1.45376C8.11678 1.35715 7.96775 1.28712 7.80879 1.24793C7.64983 1.20875 7.48428 1.20123 7.32221 1.22583H2.17471C1.96223 1.24435 1.76333 1.33465 1.61303 1.48083C1.46273 1.62702 1.37067 1.81971 1.35304 2.02499C1.02075 6.51083 3.61262 11.3117 4.13825 12.2333V12.2683L4.21075 12.4025C6.09233 15.5533 8.80155 18.1691 12.0649 19.9858V19.9858L12.3307 20.1317C13.5391 20.75 18.3422 23.0833 22.8312 22.7625C23.0459 22.7481 23.2484 22.6604 23.4022 22.515C23.5561 22.3697 23.6514 22.1762 23.671 21.9692V17.005C23.6964 16.8485 23.6886 16.6887 23.6481 16.5352C23.6075 16.3817 23.5349 16.2378 23.4349 16.1123C23.3348 15.9867 23.2093 15.8822 23.0661 15.805C22.9228 15.7278 22.7648 15.6796 22.6016 15.6633Z" stroke="white" stroke-linecap="round" stroke-linejoin="round"/>
</svg>
