<svg width="41" height="49" viewBox="0 0 41 49" fill="none" xmlns="http://www.w3.org/2000/svg">
<path d="M0.625 48.7916V33.3333C0.625 30.2784 1.70193 27.674 3.85579 25.5202C6.00818 23.3678 8.61181 22.2916 11.6667 22.2916H13.875V4.62492C13.875 3.41034 14.3078 2.37021 15.1735 1.50454C16.0377 0.640349 17.0771 0.208252 18.2917 0.208252H22.7083C23.9229 0.208252 24.963 0.640349 25.8287 1.50454C26.6929 2.37021 27.125 3.41034 27.125 4.62492V22.2916H29.3333C32.3882 22.2916 34.9926 23.3678 37.1464 25.5202C39.2988 27.674 40.375 30.2784 40.375 33.3333V48.7916H0.625ZM5.04167 44.3749H9.45833V37.7499C9.45833 37.1242 9.6696 36.6001 10.0921 36.1776C10.5161 35.7536 11.041 35.5416 11.6667 35.5416C12.2924 35.5416 12.8172 35.7536 13.2412 36.1776C13.6637 36.6001 13.875 37.1242 13.875 37.7499V44.3749H18.2917V37.7499C18.2917 37.1242 18.5037 36.6001 18.9277 36.1776C19.3502 35.7536 19.8743 35.5416 20.5 35.5416C21.1257 35.5416 21.6505 35.7536 22.0745 36.1776C22.4971 36.6001 22.7083 37.1242 22.7083 37.7499V44.3749H27.125V37.7499C27.125 37.1242 27.337 36.6001 27.761 36.1776C28.1835 35.7536 28.7076 35.5416 29.3333 35.5416C29.959 35.5416 30.4831 35.7536 30.9057 36.1776C31.3297 36.6001 31.5417 37.1242 31.5417 37.7499V44.3749H35.9583V33.3333C35.9583 31.493 35.3142 29.9287 34.026 28.6405C32.7378 27.3523 31.1736 26.7083 29.3333 26.7083H11.6667C9.82639 26.7083 8.26215 27.3523 6.97396 28.6405C5.68576 29.9287 5.04167 31.493 5.04167 33.3333V44.3749ZM22.7083 22.2916V4.62492H18.2917V22.2916H22.7083Z" fill="white"/>
</svg>
