<svg width="47" height="35" viewBox="0 0 47 35" fill="none" xmlns="http://www.w3.org/2000/svg">
<path d="M44.6999 23.7999H42.9332V13.1999H44.6999C45.1684 13.1999 45.6178 13.0138 45.9491 12.6825C46.2804 12.3512 46.4665 11.9018 46.4665 11.4333C46.4665 10.9647 46.2804 10.5154 45.9491 10.1841C45.6178 9.85274 45.1684 9.66661 44.6999 9.66661H42.9332V2.59995L41.9227 0.575346C41.8457 0.446345 41.737 0.339192 41.6069 0.264094C41.4769 0.188996 41.3297 0.148454 41.1795 0.146328C41.0293 0.144203 40.8811 0.180565 40.7489 0.251953C40.6168 0.32334 40.5051 0.427374 40.4245 0.554146L39.3999 2.59995V9.66661H35.8665V2.59995L34.856 0.575346C34.7791 0.446345 34.6704 0.339192 34.5403 0.264094C34.4102 0.188996 34.263 0.148454 34.1129 0.146328C33.9627 0.144203 33.8144 0.180565 33.6823 0.251953C33.5501 0.32334 33.4384 0.427374 33.3579 0.554146L32.3332 2.59995V9.66661H28.7999V2.59995L27.7893 0.575346C27.7117 0.447156 27.6028 0.340811 27.4728 0.266314C27.3428 0.191817 27.196 0.151618 27.0461 0.149497C26.8963 0.147377 26.7484 0.183406 26.6163 0.254194C26.4843 0.324982 26.3724 0.428203 26.2912 0.554146L25.2665 2.59995V9.66661H21.7332V2.59995L20.7227 0.575346C20.6451 0.447156 20.5362 0.340811 20.4061 0.266314C20.2761 0.191817 20.1293 0.151618 19.9795 0.149497C19.8297 0.147377 19.6817 0.183406 19.5497 0.254194C19.4176 0.324982 19.3057 0.428203 19.2245 0.554146L18.1999 2.59995V9.66661H14.6665V2.59995L13.656 0.575346C13.5784 0.447156 13.4695 0.340811 13.3395 0.266314C13.2095 0.191817 13.0626 0.151618 12.9128 0.149497C12.763 0.147377 12.6151 0.183406 12.483 0.254194C12.3509 0.324982 12.2391 0.428203 12.1579 0.554146L11.1332 2.59995V9.66661H7.59987V2.59995L6.58934 0.575346C6.51175 0.447156 6.40282 0.340811 6.27281 0.266314C6.1428 0.191817 5.99597 0.151618 5.84615 0.149497C5.69632 0.147377 5.54841 0.183406 5.41635 0.254194C5.28428 0.324982 5.17239 0.428203 5.0912 0.554146L4.06654 2.59995V9.66661H2.29987C1.83132 9.66661 1.38196 9.85274 1.05065 10.1841C0.719333 10.5154 0.533203 10.9647 0.533203 11.4333C0.533203 11.9018 0.719333 12.3512 1.05065 12.6825C1.38196 13.0138 1.83132 13.1999 2.29987 13.1999H4.06654V23.7999H2.29987C1.83132 23.7999 1.38196 23.9861 1.05065 24.3174C0.719333 24.6487 0.533203 25.0981 0.533203 25.5666C0.533203 26.0352 0.719333 26.4845 1.05065 26.8158C1.38196 27.1472 1.83132 27.3333 2.29987 27.3333H4.06654V32.6333C4.06654 33.1018 4.25267 33.5512 4.58398 33.8825C4.9153 34.2138 5.36465 34.3999 5.8332 34.3999C6.30175 34.3999 6.75111 34.2138 7.08242 33.8825C7.41374 33.5512 7.59987 33.1018 7.59987 32.6333V27.3333H11.1332V32.6333C11.1332 33.1018 11.3193 33.5512 11.6506 33.8825C11.982 34.2138 12.4313 34.3999 12.8999 34.3999C13.3684 34.3999 13.8178 34.2138 14.1491 33.8825C14.4804 33.5512 14.6665 33.1018 14.6665 32.6333V27.3333H18.1999V32.6333C18.1999 33.1018 18.386 33.5512 18.7173 33.8825C19.0486 34.2138 19.498 34.3999 19.9665 34.3999C20.4351 34.3999 20.8844 34.2138 21.2158 33.8825C21.5471 33.5512 21.7332 33.1018 21.7332 32.6333V27.3333H25.2665V32.6333C25.2665 33.1018 25.4527 33.5512 25.784 33.8825C26.1153 34.2138 26.5647 34.3999 27.0332 34.3999C27.5018 34.3999 27.9511 34.2138 28.2824 33.8825C28.6137 33.5512 28.7999 33.1018 28.7999 32.6333V27.3333H32.3332V32.6333C32.3332 33.1018 32.5193 33.5512 32.8506 33.8825C33.182 34.2138 33.6313 34.3999 34.0999 34.3999C34.5684 34.3999 35.0178 34.2138 35.3491 33.8825C35.6804 33.5512 35.8665 33.1018 35.8665 32.6333V27.3333H39.3999V32.6333C39.3999 33.1018 39.586 33.5512 39.9173 33.8825C40.2486 34.2138 40.698 34.3999 41.1665 34.3999C41.6351 34.3999 42.0844 34.2138 42.4158 33.8825C42.7471 33.5512 42.9332 33.1018 42.9332 32.6333V27.3333H44.6999C45.1684 27.3333 45.6178 27.1472 45.9491 26.8158C46.2804 26.4845 46.4665 26.0352 46.4665 25.5666C46.4665 25.0981 46.2804 24.6487 45.9491 24.3174C45.6178 23.9861 45.1684 23.7999 44.6999 23.7999ZM7.59987 23.7999V13.1999H11.1332V23.7999H7.59987ZM14.6665 23.7999V13.1999H18.1999V23.7999H14.6665ZM21.7332 23.7999V13.1999H25.2665V23.7999H21.7332ZM28.7999 23.7999V13.1999H32.3332V23.7999H28.7999ZM35.8665 23.7999V13.1999H39.3999V23.7999H35.8665Z" fill="white"/>
</svg>
